# Blender v2.82 (sub 7) OBJ File: ''
# www.blender.org
mtllib QLModuleBubbleInner2.mtl
o Curve.002
v 1.077539 0.000000 1.783148
v 0.976008 0.000000 2.042198
v 0.406852 0.000000 2.164810
v 0.744925 0.000000 1.927590
v 0.752567 0.000000 1.810800
v 0.144836 0.000000 1.870468
v 0.000000 0.000000 0.282699
v 3.210054 0.000000 0.000000
v 3.345793 0.000000 1.584131
v 1.077539 0.281139 1.783148
v 0.976008 0.281139 2.042198
v 0.406852 0.281139 2.164810
v 0.744925 0.281139 1.927590
v 0.752567 0.281139 1.810800
v 0.144836 0.281139 1.870468
v 0.000000 0.281139 0.282699
v 3.210054 0.281139 0.000000
v 3.345793 0.281139 1.584131
vt 0.750000 0.000000
vt 0.875000 0.000000
vt 1.000000 0.000000
vt 0.625000 0.000000
vt 0.500000 0.000000
vt 0.000000 0.000000
vt 0.125000 0.000000
vt 0.375000 0.000000
vt 0.250000 0.000000
vt 0.750000 0.000000
vt 1.000000 0.000000
vt 0.875000 0.000000
vt 0.625000 0.000000
vt 0.500000 0.000000
vt 0.000000 0.000000
vt 0.125000 0.000000
vt 0.375000 0.000000
vt 0.250000 0.000000
vn 0.0000 -1.0000 0.0000
vn 0.0000 1.0000 -0.0000
vn 0.0000 1.0000 -0.0001
vn 0.9963 0.0000 -0.0854
vn -0.5744 0.0000 -0.8186
vn -0.9959 0.0000 0.0908
vn 0.9310 0.0000 0.3649
vn -0.0877 0.0000 -0.9961
vn 0.2106 0.0000 0.9776
vn 0.0977 0.0000 0.9952
vn -0.9979 0.0000 -0.0653
vn 0.0874 0.0000 0.9962
usemtl SVGMat.005
s off
f 7/1/1 8/2/1 9/3/1
f 6/4/1 7/1/1 5/5/1
f 5/5/1 7/1/1 9/3/1
f 5/5/1 9/3/1 1/6/1
f 5/5/1 1/6/1 2/7/1
f 4/8/1 5/5/1 2/7/1
f 3/9/1 4/8/1 2/7/1
f 16/10/2 18/11/2 17/12/2
f 15/13/2 14/14/2 16/10/2
f 14/14/2 18/11/2 16/10/2
f 14/14/3 10/15/3 18/11/3
f 14/14/2 11/16/2 10/15/2
f 13/17/2 11/16/2 14/14/2
f 12/18/2 11/16/2 13/17/2
f 9/3/4 8/2/4 17/12/4 18/11/4
f 4/8/5 3/9/5 12/18/5 13/17/5
f 7/1/6 6/4/6 15/13/6 16/10/6
f 2/7/7 1/6/7 10/15/7 11/16/7
f 8/2/8 7/1/8 16/10/8 17/12/8
f 3/9/9 2/7/9 11/16/9 12/18/9
f 6/4/10 5/5/10 14/14/10 15/13/10
f 5/5/11 4/8/11 13/17/11 14/14/11
f 1/6/12 9/3/12 18/11/12 10/15/12
