# Blender v2.82 (sub 7) OBJ File: ''
# www.blender.org
mtllib QLModuleBubbleInner.mtl
o Curve
v 3.096519 0.000000 0.003638
v 3.303948 0.000000 0.000000
v 3.449512 0.000000 1.669999
v 2.579765 0.000000 1.750042
v 1.171793 0.000000 1.873746
v 1.080816 0.000000 2.132068
v 0.462167 0.000000 2.244857
v 0.407580 0.000000 2.193920
v 0.742378 0.000000 1.953789
v 0.749657 0.000000 1.921044
v 0.152843 0.000000 1.979258
v 0.127369 0.000000 1.659084
v 0.000000 0.000000 0.272876
v 3.096519 0.312568 0.003638
v 3.303948 0.312568 0.000000
v 3.449512 0.312568 1.669999
v 2.579765 0.312568 1.750042
v 1.171793 0.312568 1.873746
v 1.080816 0.312568 2.132068
v 0.462167 0.312568 2.244857
v 0.407580 0.312568 2.193920
v 0.742378 0.312568 1.953789
v 0.749657 0.312568 1.921044
v 0.152843 0.312568 1.979258
v 0.127369 0.312568 1.659084
v 0.000000 0.312568 0.272876
vt 0.000000 0.000000
vt 0.083333 0.000000
vt 0.166667 0.000000
vt 1.000000 0.000000
vt 0.916667 0.000000
vt 0.833333 0.000000
vt 0.333333 0.000000
vt 0.250000 0.000000
vt 0.750000 0.000000
vt 0.416667 0.000000
vt 0.666667 0.000000
vt 0.583333 0.000000
vt 0.500000 0.000000
vt 0.000000 0.000000
vt 0.166667 0.000000
vt 0.083333 0.000000
vt 1.000000 0.000000
vt 0.916667 0.000000
vt 0.833333 0.000000
vt 0.333333 0.000000
vt 0.250000 0.000000
vt 0.750000 0.000000
vt 0.416667 0.000000
vt 0.666667 0.000000
vt 0.583333 0.000000
vt 0.500000 0.000000
vn 0.0000 -1.0000 0.0000
vn 0.0000 1.0000 0.0000
vn 0.9432 0.0000 0.3322
vn 0.9962 0.0000 -0.0868
vn -0.9762 0.0000 -0.2170
vn -0.0866 0.0000 -0.9962
vn 0.0875 0.0000 0.9962
vn -0.5828 0.0000 -0.8126
vn 0.0916 0.0000 0.9958
vn -0.9958 0.0000 0.0915
vn 0.0971 0.0000 0.9953
vn -0.6822 0.0000 0.7311
vn -0.9968 0.0000 0.0793
vn 0.1794 0.0000 0.9838
vn -0.0175 0.0000 -0.9998
usemtl SVGMat.001
s off
f 1/1/1 2/2/1 3/3/1
f 13/4/1 1/1/1 3/3/1
f 12/5/1 13/4/1 3/3/1
f 11/6/1 12/5/1 5/7/1
f 5/7/1 12/5/1 3/3/1
f 5/7/1 3/3/1 4/8/1
f 11/6/1 5/7/1 10/9/1
f 10/9/1 5/7/1 6/10/1
f 9/11/1 10/9/1 6/10/1
f 8/12/1 9/11/1 6/10/1
f 8/12/1 6/10/1 7/13/1
f 14/14/2 16/15/2 15/16/2
f 26/17/2 16/15/2 14/14/2
f 25/18/2 16/15/2 26/17/2
f 24/19/2 18/20/2 25/18/2
f 18/20/2 16/15/2 25/18/2
f 18/20/2 17/21/2 16/15/2
f 24/19/2 23/22/2 18/20/2
f 23/22/2 19/23/2 18/20/2
f 22/24/2 19/23/2 23/22/2
f 21/25/2 19/23/2 22/24/2
f 21/25/2 20/26/2 19/23/2
f 6/10/3 5/7/3 18/20/3 19/23/3
f 3/3/4 2/2/4 15/16/4 16/15/4
f 10/9/5 9/11/5 22/24/5 23/22/5
f 1/1/6 13/4/6 26/17/6 14/14/6
f 5/7/7 4/8/7 17/21/7 18/20/7
f 9/11/8 8/12/8 21/25/8 22/24/8
f 4/8/9 3/3/9 16/15/9 17/21/9
f 13/4/10 12/5/10 25/18/10 26/17/10
f 11/6/11 10/9/11 23/22/11 24/19/11
f 8/12/12 7/13/12 20/26/12 21/25/12
f 12/5/13 11/6/13 24/19/13 25/18/13
f 7/13/14 6/10/14 19/23/14 20/26/14
f 2/2/15 1/1/15 14/14/15 15/16/15
o Curve.001
v 3.096514 0.000000 0.010915
v 3.304307 0.000000 0.000000
v 3.449507 0.000000 1.677273
v 2.579761 0.000000 1.757316
v 1.171792 0.000000 1.881020
v 0.153206 0.000000 1.979255
v 0.127369 0.000000 1.666358
v 0.000000 0.000000 0.280152
v 3.096514 0.303708 0.010915
v 3.304307 0.303708 0.000000
v 3.449507 0.303708 1.677273
v 2.579761 0.303708 1.757316
v 1.171792 0.303708 1.881020
v 0.153206 0.303708 1.979255
v 0.127369 0.303708 1.666358
v 0.000000 0.303708 0.280152
vt 0.000000 0.000000
vt 0.142857 0.000000
vt 0.285714 0.000000
vt 1.000000 0.000000
vt 0.857143 0.000000
vt 0.714286 0.000000
vt 0.571429 0.000000
vt 0.428571 0.000000
vt 0.000000 0.000000
vt 0.285714 0.000000
vt 0.142857 0.000000
vt 1.000000 0.000000
vt 0.857143 0.000000
vt 0.714286 0.000000
vt 0.571429 0.000000
vt 0.428571 0.000000
vn 0.0000 -1.0000 0.0000
vn 0.0000 1.0000 0.0000
vn -0.9966 0.0000 0.0823
vn -0.9958 0.0000 0.0915
vn -0.0866 0.0000 -0.9962
vn 0.0916 0.0000 0.9958
vn 0.0960 0.0000 0.9954
vn 0.9963 0.0000 -0.0862
vn 0.0875 0.0000 0.9962
vn -0.0525 0.0000 -0.9986
usemtl SVGMat.003
s off
f 27/27/16 28/28/16 29/29/16
f 34/30/16 27/27/16 29/29/16
f 33/31/16 34/30/16 29/29/16
f 32/32/16 33/31/16 31/33/16
f 31/33/16 33/31/16 29/29/16
f 31/33/16 29/29/16 30/34/16
f 35/35/17 37/36/17 36/37/17
f 42/38/17 37/36/17 35/35/17
f 41/39/17 37/36/17 42/38/17
f 40/40/17 39/41/17 41/39/17
f 39/41/17 37/36/17 41/39/17
f 39/41/17 38/42/17 37/36/17
f 33/31/18 32/32/18 40/40/18 41/39/18
f 34/30/19 33/31/19 41/39/19 42/38/19
f 27/27/20 34/30/20 42/38/20 35/35/20
f 30/34/21 29/29/21 37/36/21 38/42/21
f 32/32/22 31/33/22 39/41/22 40/40/22
f 29/29/23 28/28/23 36/37/23 37/36/23
f 31/33/24 30/34/24 38/42/24 39/41/24
f 28/28/25 27/27/25 35/35/25 36/37/25
o Curve.002
v 1.077539 0.000000 1.783148
v 0.976008 0.000000 2.042198
v 0.406852 0.000000 2.164810
v 0.744925 0.000000 1.927590
v 0.752567 0.000000 1.810800
v 0.144836 0.000000 1.870468
v 0.000000 0.000000 0.282699
v 3.210054 0.000000 0.000000
v 3.345793 0.000000 1.584131
v 1.077539 0.281139 1.783148
v 0.976008 0.281139 2.042198
v 0.406852 0.281139 2.164810
v 0.744925 0.281139 1.927590
v 0.752567 0.281139 1.810800
v 0.144836 0.281139 1.870468
v 0.000000 0.281139 0.282699
v 3.210054 0.281139 0.000000
v 3.345793 0.281139 1.584131
vt 0.750000 0.000000
vt 0.875000 0.000000
vt 1.000000 0.000000
vt 0.625000 0.000000
vt 0.500000 0.000000
vt 0.000000 0.000000
vt 0.125000 0.000000
vt 0.375000 0.000000
vt 0.250000 0.000000
vt 0.750000 0.000000
vt 1.000000 0.000000
vt 0.875000 0.000000
vt 0.625000 0.000000
vt 0.500000 0.000000
vt 0.000000 0.000000
vt 0.125000 0.000000
vt 0.375000 0.000000
vt 0.250000 0.000000
vn 0.0000 -1.0000 0.0000
vn 0.0000 1.0000 -0.0000
vn 0.0000 1.0000 -0.0001
vn 0.9963 0.0000 -0.0854
vn -0.5744 0.0000 -0.8186
vn -0.9959 0.0000 0.0908
vn 0.9310 0.0000 0.3649
vn -0.0877 0.0000 -0.9961
vn 0.2106 0.0000 0.9776
vn 0.0977 0.0000 0.9952
vn -0.9979 0.0000 -0.0653
vn 0.0874 0.0000 0.9962
usemtl SVGMat.005
s off
f 49/43/26 50/44/26 51/45/26
f 48/46/26 49/43/26 47/47/26
f 47/47/26 49/43/26 51/45/26
f 47/47/26 51/45/26 43/48/26
f 47/47/26 43/48/26 44/49/26
f 46/50/26 47/47/26 44/49/26
f 45/51/26 46/50/26 44/49/26
f 58/52/27 60/53/27 59/54/27
f 57/55/27 56/56/27 58/52/27
f 56/56/27 60/53/27 58/52/27
f 56/56/28 52/57/28 60/53/28
f 56/56/27 53/58/27 52/57/27
f 55/59/27 53/58/27 56/56/27
f 54/60/27 53/58/27 55/59/27
f 51/45/29 50/44/29 59/54/29 60/53/29
f 46/50/30 45/51/30 54/60/30 55/59/30
f 49/43/31 48/46/31 57/55/31 58/52/31
f 44/49/32 43/48/32 52/57/32 53/58/32
f 50/44/33 49/43/33 58/52/33 59/54/33
f 45/51/34 44/49/34 53/58/34 54/60/34
f 48/46/35 47/47/35 56/56/35 57/55/35
f 47/47/36 46/50/36 55/59/36 56/56/36
f 43/48/37 51/45/37 60/53/37 52/57/37
