# Blender v2.82 (sub 7) OBJ File: ''
# www.blender.org
mtllib QLModuleBubbleOutline1.mtl
o Curve
v 3.096519 0.000000 0.003638
v 3.303948 0.000000 0.000000
v 3.449512 0.000000 1.669999
v 2.579765 0.000000 1.750042
v 1.171793 0.000000 1.873746
v 1.080816 0.000000 2.132068
v 0.462167 0.000000 2.244857
v 0.407580 0.000000 2.193920
v 0.742378 0.000000 1.953789
v 0.749657 0.000000 1.921044
v 0.152843 0.000000 1.979258
v 0.127369 0.000000 1.659084
v 0.000000 0.000000 0.272876
v 3.096519 0.312568 0.003638
v 3.303948 0.312568 0.000000
v 3.449512 0.312568 1.669999
v 2.579765 0.312568 1.750042
v 1.171793 0.312568 1.873746
v 1.080816 0.312568 2.132068
v 0.462167 0.312568 2.244857
v 0.407580 0.312568 2.193920
v 0.742378 0.312568 1.953789
v 0.749657 0.312568 1.921044
v 0.152843 0.312568 1.979258
v 0.127369 0.312568 1.659084
v 0.000000 0.312568 0.272876
vt 0.000000 0.000000
vt 0.083333 0.000000
vt 0.166667 0.000000
vt 1.000000 0.000000
vt 0.916667 0.000000
vt 0.833333 0.000000
vt 0.333333 0.000000
vt 0.250000 0.000000
vt 0.750000 0.000000
vt 0.416667 0.000000
vt 0.666667 0.000000
vt 0.583333 0.000000
vt 0.500000 0.000000
vt 0.000000 0.000000
vt 0.166667 0.000000
vt 0.083333 0.000000
vt 1.000000 0.000000
vt 0.916667 0.000000
vt 0.833333 0.000000
vt 0.333333 0.000000
vt 0.250000 0.000000
vt 0.750000 0.000000
vt 0.416667 0.000000
vt 0.666667 0.000000
vt 0.583333 0.000000
vt 0.500000 0.000000
vn 0.0000 -1.0000 0.0000
vn 0.0000 1.0000 0.0000
vn 0.9432 0.0000 0.3322
vn 0.9962 0.0000 -0.0868
vn -0.9762 0.0000 -0.2170
vn -0.0866 0.0000 -0.9962
vn 0.0875 0.0000 0.9962
vn -0.5828 0.0000 -0.8126
vn 0.0916 0.0000 0.9958
vn -0.9958 0.0000 0.0915
vn 0.0971 0.0000 0.9953
vn -0.6822 0.0000 0.7311
vn -0.9968 0.0000 0.0793
vn 0.1794 0.0000 0.9838
vn -0.0175 0.0000 -0.9998
usemtl SVGMat.001
s off
f 1/1/1 2/2/1 3/3/1
f 13/4/1 1/1/1 3/3/1
f 12/5/1 13/4/1 3/3/1
f 11/6/1 12/5/1 5/7/1
f 5/7/1 12/5/1 3/3/1
f 5/7/1 3/3/1 4/8/1
f 11/6/1 5/7/1 10/9/1
f 10/9/1 5/7/1 6/10/1
f 9/11/1 10/9/1 6/10/1
f 8/12/1 9/11/1 6/10/1
f 8/12/1 6/10/1 7/13/1
f 14/14/2 16/15/2 15/16/2
f 26/17/2 16/15/2 14/14/2
f 25/18/2 16/15/2 26/17/2
f 24/19/2 18/20/2 25/18/2
f 18/20/2 16/15/2 25/18/2
f 18/20/2 17/21/2 16/15/2
f 24/19/2 23/22/2 18/20/2
f 23/22/2 19/23/2 18/20/2
f 22/24/2 19/23/2 23/22/2
f 21/25/2 19/23/2 22/24/2
f 21/25/2 20/26/2 19/23/2
f 6/10/3 5/7/3 18/20/3 19/23/3
f 3/3/4 2/2/4 15/16/4 16/15/4
f 10/9/5 9/11/5 22/24/5 23/22/5
f 1/1/6 13/4/6 26/17/6 14/14/6
f 5/7/7 4/8/7 17/21/7 18/20/7
f 9/11/8 8/12/8 21/25/8 22/24/8
f 4/8/9 3/3/9 16/15/9 17/21/9
f 13/4/10 12/5/10 25/18/10 26/17/10
f 11/6/11 10/9/11 23/22/11 24/19/11
f 8/12/12 7/13/12 20/26/12 21/25/12
f 12/5/13 11/6/13 24/19/13 25/18/13
f 7/13/14 6/10/14 19/23/14 20/26/14
f 2/2/15 1/1/15 14/14/15 15/16/15
